<svg width="19" height="19" viewBox="0 0 19 19" fill="none" xmlns="http://www.w3.org/2000/svg">
  <circle cx="9.5" cy="9.5" r="9" stroke="white" />
  <path
    d="M9.5 4.30625C10.2975 4.30625 10.9438 4.9525 10.9438 5.75C10.9438 6.5475 10.2975 7.19375 9.5 7.19375C8.7025 7.19375 8.05625 6.5475 8.05625 5.75C8.05625 4.9525 8.7025 4.30625 9.5 4.30625ZM9.5 10.4937C11.5419 10.4937 13.6938 11.4975 13.6938 11.9375V12.6938H5.30625V11.9375C5.30625 11.4975 7.45812 10.4937 9.5 10.4937ZM9.5 3C7.98062 3 6.75 4.23062 6.75 5.75C6.75 7.26937 7.98062 8.5 9.5 8.5C11.0194 8.5 12.25 7.26937 12.25 5.75C12.25 4.23062 11.0194 3 9.5 3ZM9.5 9.1875C7.66437 9.1875 4 10.1087 4 11.9375V14H15V11.9375C15 10.1087 11.3356 9.1875 9.5 9.1875Z"
    fill="white" />
</svg>
